<?xml version="1.0" standalone="no"?>
<!DOCTYPE svg PUBLIC "-//W3C//DTD SVG 20010904//EN"
 "http://www.w3.org/TR/2001/REC-SVG-20010904/DTD/svg10.dtd">
<svg version="1.0" xmlns="http://www.w3.org/2000/svg"
 width="2400.000000pt" height="2400.000000pt" viewBox="0 0 2400.000000 2400.000000"
 preserveAspectRatio="xMidYMid meet">
<metadata>
Created by potrace 1.14, written by Peter Selinger 2001-2017
</metadata>
<g transform="translate(0.000000,2400.000000) scale(0.100000,-0.100000)"
fill="#000000" stroke="none">
<path d="M0 12000 l0 -12000 12000 0 12000 0 0 12000 0 12000 -12000 0 -12000
0 0 -12000z m9884 4190 c15 -5 31 -20 36 -32 13 -29 690 -3163 690 -3193 0
-47 -16 -50 -276 -50 -230 0 -245 1 -263 20 -16 16 -33 87 -78 325 l-58 305
-362 3 -361 2 -5 -22 c-3 -13 -29 -149 -57 -303 -29 -154 -58 -290 -65 -301
-19 -30 -52 -34 -280 -34 -209 0 -259 7 -268 39 -5 20 676 3187 691 3211 22
36 51 40 344 40 163 0 298 -4 312 -10z m-2108 -427 c108 -31 163 -61 235 -133
71 -70 108 -135 136 -240 17 -60 18 -137 18 -1040 0 -1069 2 -1022 -61 -1157
-61 -129 -177 -217 -339 -258 -61 -15 -137 -18 -604 -22 -293 -3 -548 -2 -567
1 -70 14 -64 -111 -64 1434 0 768 4 1402 8 1408 22 33 42 34 607 31 524 -4
565 -6 631 -24z m4447 -1 c206 -56 326 -182 374 -392 16 -66 18 -137 18 -585
0 -568 0 -568 -70 -711 -44 -90 -120 -163 -218 -209 -114 -55 -191 -65 -492
-65 -144 0 -277 -3 -294 -6 l-31 -6 0 -419 c0 -410 0 -419 -21 -440 -20 -20
-29 -20 -249 -17 -204 3 -231 5 -247 21 -17 17 -18 89 -21 1408 -1 977 1 1396
9 1410 5 11 20 24 32 29 13 6 250 8 577 6 531 -3 558 -4 633 -24z m2064 -4
c155 -47 247 -122 310 -254 61 -127 64 -171 61 -751 l-3 -518 -28 -79 c-60
-171 -150 -259 -330 -324 -71 -26 -77 -26 -372 -29 -165 -2 -315 -6 -332 -9
l-33 -5 0 -415 0 -415 -25 -25 -25 -25 -224 3 c-204 3 -226 5 -245 22 l-21 19
0 1398 0 1398 28 21 27 22 565 -4 565 -5 82 -25z m-10242 -3422 c152 -44 265
-135 325 -261 51 -107 60 -182 60 -499 0 -275 -1 -283 -21 -302 -19 -17 -39
-19 -241 -19 -282 0 -258 -24 -258 249 0 221 -6 248 -63 290 -26 19 -45 21
-213 24 -171 3 -188 2 -229 -18 -79 -38 -75 14 -75 -888 l0 -799 23 -34 c42
-64 68 -70 279 -67 170 3 189 5 215 24 58 42 63 68 63 302 0 199 1 213 20 232
19 19 33 20 238 20 181 0 221 -3 240 -16 22 -15 22 -17 22 -307 0 -330 -8
-387 -65 -503 -65 -133 -189 -224 -354 -259 -104 -22 -697 -22 -803 0 -208 43
-345 174 -398 381 -19 74 -20 114 -20 1033 0 804 3 967 15 1026 47 224 206
367 450 404 33 5 211 8 395 7 282 -3 345 -6 395 -20z m2040 0 c198 -55 317
-172 372 -367 17 -60 18 -126 18 -1044 0 -900 -1 -985 -17 -1043 -59 -210
-194 -338 -401 -377 -112 -21 -701 -21 -802 0 -160 34 -284 125 -350 257 -66
136 -65 110 -65 1163 0 1041 0 1029 60 1151 75 153 209 243 405 273 33 5 209
8 390 7 273 -2 340 -6 390 -20z m1314 9 c16 -8 32 -22 37 -32 5 -10 11 -509
14 -1110 l5 -1092 30 -31 c41 -43 88 -52 249 -48 153 4 184 12 220 61 21 28
21 32 26 1122 l5 1094 23 23 c22 22 29 23 232 26 241 4 261 -1 280 -66 8 -26
10 -371 8 -1187 l-3 -1150 -23 -78 c-53 -190 -160 -304 -338 -359 -64 -20 -94
-22 -423 -26 -295 -3 -366 -1 -435 13 -247 48 -385 208 -416 480 -13 118 -14
2284 0 2319 18 49 47 55 273 56 164 0 214 -3 236 -15z m2787 -11 c105 -31 162
-62 230 -129 72 -71 115 -154 138 -267 24 -114 24 -1052 0 -1166 -23 -114 -66
-196 -141 -269 -34 -35 -63 -68 -63 -74 0 -6 47 -207 105 -446 58 -238 105
-440 105 -448 0 -7 -7 -21 -16 -29 -13 -14 -50 -16 -249 -16 -260 0 -256 -1
-274 68 -16 58 -191 780 -191 786 0 3 -81 6 -180 6 l-179 0 -3 -416 c-3 -398
-4 -416 -22 -430 -16 -11 -67 -14 -252 -14 -229 0 -233 0 -248 22 -14 20 -16
170 -16 1413 0 764 4 1395 8 1401 22 33 44 34 612 31 534 -3 569 -4 636 -23z
m2039 2 c215 -60 342 -201 380 -420 21 -126 21 -433 -1 -464 -15 -22 -18 -22
-258 -22 -219 0 -244 2 -259 18 -12 13 -16 47 -19 154 -3 153 -12 176 -79 211
-30 15 -56 17 -204 15 -195 -3 -213 -9 -246 -81 -16 -36 -19 -67 -19 -233 l0
-191 218 -71 c119 -39 350 -113 514 -166 272 -88 299 -99 327 -131 16 -19 33
-49 36 -68 4 -18 5 -240 2 -492 -4 -505 -5 -512 -69 -638 -66 -131 -193 -222
-351 -252 -112 -21 -701 -21 -802 0 -153 32 -278 121 -344 244 -58 110 -71
187 -71 427 l0 213 31 16 c25 14 65 16 254 13 199 -3 226 -5 242 -21 15 -15
19 -41 23 -157 4 -120 8 -142 26 -167 40 -54 73 -63 244 -63 171 0 204 9 244
63 20 27 21 44 24 271 l3 242 -163 52 c-547 174 -842 272 -864 287 -14 9 -34
30 -44 48 -19 30 -20 53 -20 467 0 479 5 523 60 636 74 152 210 243 405 273
33 5 209 8 390 7 273 -2 340 -6 390 -20z m2415 4 c19 -19 20 -33 20 -257 0
-206 -2 -239 -17 -255 -15 -17 -45 -18 -535 -18 l-518 0 0 -315 0 -315 399 0
400 0 15 -22 c13 -19 16 -61 16 -254 l0 -233 -26 -20 c-26 -20 -37 -21 -415
-21 l-389 0 0 -300 0 -300 519 0 c459 0 521 -2 535 -16 14 -13 16 -50 16 -253
0 -218 -2 -239 -18 -255 -17 -15 -84 -16 -808 -14 l-788 3 -13 25 c-10 20 -13
313 -13 1408 l0 1383 25 24 24 25 776 0 c762 0 775 0 795 -20z m-2172 -3422
c8 -8 12 -49 12 -120 0 -120 -2 -126 -78 -240 l-45 -68 -53 0 c-29 0 -55 4
-58 8 -2 4 13 46 34 92 l38 85 -34 3 c-46 4 -57 32 -52 145 2 64 7 90 18 97
22 14 203 13 218 -2z m812 -14 c25 -12 60 -36 78 -55 55 -57 62 -100 62 -399
0 -253 -1 -268 -20 -285 -11 -10 -118 -70 -237 -135 -149 -80 -222 -125 -230
-141 -15 -29 -17 -157 -3 -193 9 -26 10 -26 124 -26 l115 0 3 53 3 52 120 0
120 0 3 -169 c2 -129 -1 -171 -10 -178 -22 -13 -712 -10 -726 4 -9 9 -12 92
-12 310 0 275 1 299 18 316 10 10 123 74 250 143 l232 124 0 153 c0 149 -1
154 -25 177 -21 22 -33 25 -98 25 -111 0 -119 -9 -125 -144 l-5 -107 -121 3
-121 3 -3 134 c-3 156 11 221 60 276 63 72 115 85 338 81 141 -2 171 -5 210
-22z m956 -9 c75 -39 110 -92 124 -190 11 -78 12 -476 1 -515 -5 -20 -51 -49
-239 -151 -128 -69 -237 -130 -242 -135 -7 -7 -10 -54 -8 -120 l3 -109 117 -3
117 -3 3 53 3 53 115 3 c99 2 116 0 127 -15 16 -21 18 -278 3 -317 l-10 -26
-358 0 c-265 0 -361 3 -370 12 -9 9 -12 92 -12 310 0 274 1 299 18 316 10 10
122 74 250 142 l232 124 0 155 c0 145 -1 156 -22 178 -19 20 -31 23 -100 23
-109 0 -118 -10 -118 -132 0 -51 -4 -99 -8 -106 -7 -9 -39 -12 -128 -10 l-119
3 0 140 c0 158 12 214 56 268 58 70 126 87 345 84 157 -3 163 -3 220 -32z
m-2321 -190 c45 -23 66 -42 89 -79 28 -45 30 -55 34 -173 4 -99 2 -127 -9
-134 -20 -12 -196 -11 -220 1 -16 9 -19 22 -19 75 0 91 -15 105 -116 105 -72
0 -111 -10 -126 -34 -4 -6 -8 -55 -8 -108 l0 -96 234 -76 c129 -42 242 -83
250 -92 14 -13 16 -49 16 -237 0 -122 -5 -240 -10 -261 -13 -60 -58 -116 -115
-145 -47 -24 -61 -26 -222 -29 -210 -5 -265 7 -329 72 -57 56 -76 122 -72 247
l3 94 120 0 120 0 5 -73 c6 -95 16 -102 127 -102 118 0 123 6 123 155 l0 114
-37 11 c-117 31 -427 141 -444 156 -18 16 -19 32 -19 219 0 234 10 284 68 347
62 66 115 79 323 76 173 -3 176 -3 234 -33z m-2334 -559 c120 -50 134 -200 26
-280 l-28 -21 -3238 0 -3238 0 -35 27 c-97 74 -86 211 22 266 l44 22 3207 0
c2740 0 3211 -2 3240 -14z m12692 0 c132 -57 132 -235 0 -292 -27 -12 -539
-14 -3241 -14 l-3209 0 -44 23 c-48 25 -89 89 -89 138 0 47 42 111 90 136 l43
23 3209 0 c2702 0 3214 -2 3241 -14z"/>
<path d="M9570 15440 c-1 -3 -59 -315 -129 -695 l-127 -690 255 -3 c139 -1
255 -1 257 1 3 2 -239 1338 -250 1377 -2 8 -5 13 -6 10z"/>
<path d="M7090 14350 l0 -890 205 0 c236 0 269 8 307 69 l23 36 0 780 c0 738
-1 782 -18 817 -13 25 -33 44 -61 58 -38 18 -61 20 -249 20 l-207 0 0 -890z"/>
<path d="M11510 14789 l0 -461 233 4 c220 3 234 4 268 26 63 38 64 47 64 442
0 395 1 388 -68 430 -29 18 -52 20 -264 20 l-233 0 0 -461z"/>
<path d="M13560 14789 l0 -461 228 4 c252 3 269 7 309 67 23 34 23 35 23 395
0 488 23 456 -335 456 l-225 0 0 -461z"/>
<path d="M5439 11797 c-67 -45 -64 1 -64 -877 0 -899 -5 -843 78 -881 36 -16
66 -19 212 -19 145 0 176 3 212 19 84 39 78 -28 78 881 0 771 -1 806 -19 836
-36 60 -54 64 -269 64 -186 0 -196 -1 -228 -23z"/>
<path d="M9470 11355 l0 -466 244 3 c346 4 321 -31 321 463 0 495 21 465 -332
465 l-233 0 0 -465z"/>
</g>
</svg>
